<svg xmlns="http://www.w3.org/2000/svg" xmlns:xlink="http://www.w3.org/1999/xlink" viewBox="0 0 150.2 26.62"><defs><style>.cls-1{font-size:18px;fill:#879288;font-family:Audiowide-Regular, Audiowide;}.cls-2{fill:url(#linear-gradient);}.cls-3{fill:#fff;}</style><linearGradient id="linear-gradient" y1="13.31" x2="26.62" y2="13.31" gradientUnits="userSpaceOnUse"><stop offset="0" stop-color="#a3d17c"/><stop offset="1" stop-color="#34b880"/></linearGradient></defs><title>Asset 10</title><g id="Layer_2" data-name="Layer 2"><g id="Layer_1-2" data-name="Layer 1"><text class="cls-1" transform="translate(30.77 20.02)">Fandashtic</text><circle class="cls-2" cx="13.31" cy="13.31" r="13.31"/><polygon class="cls-3" points="16.12 14.7 15.54 17.48 10.3 17.48 10.88 14.7 16.12 14.7"/><polygon class="cls-3" points="16.31 9.13 15.73 11.92 10.49 11.92 11.08 9.13 16.31 9.13"/><path class="cls-3" d="M8.3,23.05h0a2.29,2.29,0,0,1-2.24-2.73l1.69-8.46a3.4,3.4,0,0,1,3.33-2.73h0Z"/><path class="cls-3" d="M15.53,17.48h0L18.32,3.57h0A2.28,2.28,0,0,1,20.56,6.3l-1.7,8.45A3.39,3.39,0,0,1,15.53,17.48Z"/></g></g></svg>